<svg width="1557" height="598" viewBox="0 0 1557 598" fill="none" xmlns="http://www.w3.org/2000/svg">
<g opacity="0.12">
<mask id="mask0_539_11815" style="mask-type:alpha" maskUnits="userSpaceOnUse" x="0" y="0" width="1557" height="598">
<ellipse cx="666.417" cy="159.355" rx="1.00164" ry="0.769192" fill="white"/>
<ellipse cx="512.165" cy="116.28" rx="1.00164" ry="0.769192" fill="white"/>
<ellipse cx="862.737" cy="82.4353" rx="1.00164" ry="0.769192" fill="white"/>
<ellipse cx="614.328" cy="47.0531" rx="1.00164" ry="0.769192" fill="white"/>
<ellipse cx="596.299" cy="271.656" rx="1.00164" ry="0.769192" fill="white"/>
<ellipse cx="478.108" cy="147.048" rx="1.00164" ry="0.769192" fill="white"/>
<ellipse cx="778.597" cy="103.974" rx="1.00164" ry="0.769192" fill="white"/>
<ellipse cx="842.704" cy="285.503" rx="1.00164" ry="0.769192" fill="white"/>
<ellipse cx="668.421" cy="243.966" rx="1.00164" ry="0.769192" fill="white"/>
<ellipse cx="734.527" cy="31.6692" rx="1.00164" ry="0.769192" fill="white"/>
<ellipse cx="1105.13" cy="45.5142" rx="1.00164" ry="0.769192" fill="white"/>
<ellipse cx="960.897" cy="160.893" rx="1.00164" ry="0.769192" fill="white"/>
<ellipse cx="708.484" cy="217.813" rx="1.00164" ry="0.769192" fill="white"/>
<ellipse cx="343.888" cy="56.2837" rx="1.00164" ry="0.769192" fill="white"/>
<ellipse cx="490.128" cy="30.131" rx="1.00164" ry="0.769192" fill="#44404F"/>
<ellipse cx="612.326" cy="165.508" rx="1.00164" ry="0.769192" fill="#44404F"/>
<ellipse cx="329.865" cy="167.046" rx="1.00164" ry="0.769192" fill="#44404F"/>
<ellipse cx="978.927" cy="54.7442" rx="1.00164" ry="0.769192" fill="#44404F"/>
<ellipse cx="896.791" cy="28.5921" rx="1.00164" ry="0.769192" fill="#44404F"/>
<ellipse cx="748.549" cy="187.046" rx="1.00164" ry="0.769192" fill="#44404F"/>
<ellipse cx="616.335" cy="93.2046" rx="1.00164" ry="0.769192" fill="#44404F"/>
<ellipse cx="670.422" cy="27.0535" rx="1.00164" ry="0.769192" fill="#44404F"/>
<ellipse cx="880.767" cy="139.356" rx="1.00164" ry="0.769192" fill="#44404F"/>
<ellipse cx="810.65" cy="283.964" rx="1.00164" ry="0.769192" fill="#44404F"/>
<ellipse cx="1101.74" cy="439.254" rx="1.00164" ry="0.769192" fill="white"/>
<ellipse cx="947.491" cy="396.179" rx="1.00164" ry="0.769192" fill="white"/>
<ellipse cx="1298.06" cy="362.335" rx="1.00164" ry="0.769192" fill="white"/>
<ellipse cx="1049.66" cy="326.953" rx="1.00164" ry="0.769192" fill="white"/>
<ellipse cx="1031.63" cy="551.556" rx="1.00164" ry="0.769192" fill="white"/>
<ellipse cx="913.433" cy="426.946" rx="1.00164" ry="0.769192" fill="white"/>
<ellipse cx="1213.92" cy="383.872" rx="1.00164" ry="0.769192" fill="white"/>
<ellipse cx="1278.03" cy="565.401" rx="1.00164" ry="0.769192" fill="white"/>
<ellipse cx="1103.75" cy="523.865" rx="1.00164" ry="0.769192" fill="white"/>
<ellipse cx="1169.85" cy="311.568" rx="1.00164" ry="0.769192" fill="white"/>
<ellipse cx="1540.46" cy="325.414" rx="1.00164" ry="0.769192" fill="white"/>
<ellipse cx="1396.22" cy="440.792" rx="1.00164" ry="0.769192" fill="white"/>
<ellipse cx="1143.81" cy="497.713" rx="1.00164" ry="0.769192" fill="white"/>
<ellipse cx="779.216" cy="336.182" rx="1.00164" ry="0.769192" fill="white"/>
<ellipse cx="925.453" cy="310.03" rx="1.00164" ry="0.769192" fill="#44404F"/>
<ellipse cx="1047.65" cy="445.407" rx="1.00164" ry="0.769192" fill="#44404F"/>
<ellipse cx="765.192" cy="446.946" rx="1.00164" ry="0.769192" fill="#44404F"/>
<ellipse cx="1414.26" cy="334.644" rx="1.00164" ry="0.769192" fill="#44404F"/>
<ellipse cx="1332.12" cy="308.491" rx="1.00164" ry="0.769192" fill="#44404F"/>
<ellipse cx="1183.88" cy="466.945" rx="1.00164" ry="0.769192" fill="#44404F"/>
<ellipse cx="1051.66" cy="373.104" rx="1.00164" ry="0.769192" fill="#44404F"/>
<ellipse cx="1105.75" cy="306.953" rx="1.00164" ry="0.769192" fill="#44404F"/>
<ellipse cx="1316.09" cy="419.255" rx="1.00164" ry="0.769192" fill="#44404F"/>
<ellipse cx="1245.98" cy="563.863" rx="1.00164" ry="0.769192" fill="#44404F"/>
<ellipse cx="1117.15" cy="133.202" rx="1.00164" ry="0.769192" fill="white"/>
<ellipse cx="962.898" cy="90.1271" rx="1.00164" ry="0.769192" fill="white"/>
<ellipse cx="1313.47" cy="56.2831" rx="1.00164" ry="0.769192" fill="white"/>
<ellipse cx="1065.06" cy="20.9008" rx="1.00164" ry="0.769192" fill="white"/>
<ellipse cx="1047.03" cy="245.504" rx="1.00164" ry="0.769192" fill="white"/>
<ellipse cx="928.842" cy="120.895" rx="1.00164" ry="0.769192" fill="white"/>
<ellipse cx="1229.33" cy="77.8201" rx="1.00164" ry="0.769192" fill="white"/>
<ellipse cx="1293.44" cy="259.349" rx="1.00164" ry="0.769192" fill="white"/>
<ellipse cx="1119.15" cy="217.813" rx="1.00164" ry="0.769192" fill="white"/>
<ellipse cx="1185.26" cy="5.51663" rx="1.00164" ry="0.769192" fill="white"/>
<ellipse cx="1555.87" cy="19.3621" rx="1.00164" ry="0.769192" fill="white"/>
<ellipse cx="1411.63" cy="134.741" rx="1.00164" ry="0.769192" fill="white"/>
<ellipse cx="1159.22" cy="191.661" rx="1.00164" ry="0.769192" fill="white"/>
<ellipse cx="794.623" cy="30.1309" rx="1.00164" ry="0.769192" fill="white"/>
<ellipse cx="940.862" cy="3.97781" rx="1.00164" ry="0.769192" fill="#44404F"/>
<ellipse cx="1063.06" cy="139.356" rx="1.00164" ry="0.769192" fill="#44404F"/>
<ellipse cx="780.599" cy="140.894" rx="1.00164" ry="0.769192" fill="#44404F"/>
<ellipse cx="1429.66" cy="28.5916" rx="1.00164" ry="0.769192" fill="#44404F"/>
<ellipse cx="1347.53" cy="2.4396" rx="1.00164" ry="0.769192" fill="#44404F"/>
<ellipse cx="1199.28" cy="160.893" rx="1.00164" ry="0.769192" fill="#44404F"/>
<ellipse cx="1067.07" cy="67.052" rx="1.00164" ry="0.769192" fill="#44404F"/>
<ellipse cx="1121.16" cy="0.901394" rx="1.00164" ry="0.769192" fill="#44404F"/>
<ellipse cx="1331.5" cy="113.203" rx="1.00164" ry="0.769192" fill="#44404F"/>
<ellipse cx="1261.38" cy="257.811" rx="1.00164" ry="0.769192" fill="#44404F"/>
<ellipse cx="423.829" cy="471.084" rx="1.00164" ry="0.769192" fill="white"/>
<ellipse cx="269.577" cy="428.009" rx="1.00164" ry="0.769192" fill="white"/>
<ellipse cx="620.15" cy="394.165" rx="1.00164" ry="0.769192" fill="white"/>
<ellipse cx="371.742" cy="358.782" rx="1.00164" ry="0.769192" fill="white"/>
<ellipse cx="353.712" cy="583.386" rx="1.00164" ry="0.769192" fill="white"/>
<ellipse cx="235.52" cy="458.777" rx="1.00164" ry="0.769192" fill="white"/>
<ellipse cx="536.01" cy="415.701" rx="1.00164" ry="0.769192" fill="white"/>
<ellipse cx="600.117" cy="597.231" rx="1.00164" ry="0.769192" fill="white"/>
<ellipse cx="425.833" cy="555.695" rx="1.00164" ry="0.769192" fill="white"/>
<ellipse cx="491.939" cy="343.398" rx="1.00164" ry="0.769192" fill="white"/>
<ellipse cx="862.546" cy="357.243" rx="1.00164" ry="0.769192" fill="white"/>
<ellipse cx="718.31" cy="472.622" rx="1.00164" ry="0.769192" fill="white"/>
<ellipse cx="465.898" cy="529.542" rx="1.00164" ry="0.769192" fill="white"/>
<ellipse cx="101.3" cy="368.012" rx="1.00164" ry="0.769192" fill="white"/>
<ellipse cx="247.538" cy="341.86" rx="1.00164" ry="0.769192" fill="#44404F"/>
<ellipse cx="369.738" cy="477.237" rx="1.00164" ry="0.769192" fill="#44404F"/>
<ellipse cx="87.277" cy="478.776" rx="1.00164" ry="0.769192" fill="#44404F"/>
<ellipse cx="736.34" cy="366.473" rx="1.00164" ry="0.769192" fill="#44404F"/>
<ellipse cx="654.204" cy="340.322" rx="1.00164" ry="0.769192" fill="#44404F"/>
<ellipse cx="505.963" cy="498.774" rx="1.00164" ry="0.769192" fill="#44404F"/>
<ellipse cx="373.747" cy="404.933" rx="1.00164" ry="0.769192" fill="#44404F"/>
<ellipse cx="427.834" cy="338.783" rx="1.00164" ry="0.769192" fill="#44404F"/>
<ellipse cx="638.176" cy="451.085" rx="1.00164" ry="0.769192" fill="#44404F"/>
<ellipse cx="568.064" cy="595.693" rx="1.00164" ry="0.769192" fill="#44404F"/>
<ellipse cx="338.24" cy="276.842" rx="1.00164" ry="0.769192" fill="white"/>
<ellipse cx="183.988" cy="233.768" rx="1.00164" ry="0.769192" fill="white"/>
<ellipse cx="534.56" cy="199.924" rx="1.00164" ry="0.769192" fill="white"/>
<ellipse cx="286.153" cy="164.54" rx="1.00164" ry="0.769192" fill="white"/>
<ellipse cx="268.124" cy="389.145" rx="1.00164" ry="0.769192" fill="white"/>
<ellipse cx="149.932" cy="264.535" rx="1.00164" ry="0.769192" fill="white"/>
<ellipse cx="450.422" cy="221.461" rx="1.00164" ry="0.769192" fill="white"/>
<ellipse cx="514.529" cy="402.989" rx="1.00164" ry="0.769192" fill="white"/>
<ellipse cx="340.245" cy="361.454" rx="1.00164" ry="0.769192" fill="white"/>
<ellipse cx="406.353" cy="149.157" rx="1.00164" ry="0.769192" fill="white"/>
<ellipse cx="776.957" cy="163.002" rx="1.00164" ry="0.769192" fill="white"/>
<ellipse cx="632.72" cy="278.381" rx="1.00164" ry="0.769192" fill="white"/>
<ellipse cx="380.308" cy="335.301" rx="1.00164" ry="0.769192" fill="white"/>
<ellipse cx="15.7126" cy="173.771" rx="1.00164" ry="0.769192" fill="white"/>
<ellipse cx="161.95" cy="147.619" rx="1.00164" ry="0.769192" fill="#44404F"/>
<ellipse cx="284.151" cy="282.996" rx="1.00164" ry="0.769192" fill="#44404F"/>
<ellipse cx="1.68914" cy="284.535" rx="1.00164" ry="0.769192" fill="#44404F"/>
<ellipse cx="650.752" cy="172.232" rx="1.00164" ry="0.769192" fill="#44404F"/>
<ellipse cx="568.615" cy="146.08" rx="1.00164" ry="0.769192" fill="#44404F"/>
<ellipse cx="420.374" cy="304.533" rx="1.00164" ry="0.769192" fill="#44404F"/>
<ellipse cx="288.158" cy="210.693" rx="1.00164" ry="0.769192" fill="#44404F"/>
<ellipse cx="342.246" cy="144.542" rx="1.00164" ry="0.769192" fill="#44404F"/>
<ellipse cx="552.589" cy="256.844" rx="1.00164" ry="0.769192" fill="#44404F"/>
<ellipse cx="482.474" cy="401.452" rx="1.00164" ry="0.769192" fill="#44404F"/>
</mask>
<g mask="url(#mask0_539_11815)">
<path d="M69.7002 123.937H2116.04V900.992L69.7002 888.113V123.937Z" fill="#D9D9D9"/>
</g>
</g>
</svg>
