<svg xmlns="http://www.w3.org/2000/svg" xmlns:xlink="http://www.w3.org/1999/xlink" width="480" zoomAndPan="magnify" viewBox="0 0 360 147.000002" height="196" preserveAspectRatio="xMidYMid meet" version="1.0"><defs><clipPath id="826ab253ef"><path d="M 15.816406 26.015625 L 344.332031 26.015625 L 344.332031 119.878906 L 15.816406 119.878906 Z M 15.816406 26.015625 " clip-rule="nonzero"/></clipPath></defs><g clip-path="url(#826ab253ef)"><path fill="#ffffff" d="M 129.402344 78.148438 C 126.574219 76.617188 125.085938 75.335938 125.085938 73.558594 C 125.085938 71.304688 127.09375 69.859375 130.246094 69.859375 C 132.65625 69.917969 134.96875 70.429688 137.179688 71.390625 L 139.761719 63.496094 C 139.761719 63.496094 137.386719 61.640625 130.410156 61.640625 C 120.6875 61.640625 113.949219 67.195312 113.949219 75.011719 C 113.949219 79.445312 117.09375 82.828125 121.28125 85.246094 C 124.675781 87.175781 125.882812 88.542969 125.882812 90.558594 C 125.882812 92.578125 124.1875 94.34375 121.046875 94.34375 C 117.828125 94.222656 114.792969 93.425781 111.929688 91.953125 L 109.1875 99.824219 C 110.855469 100.773438 112.621094 101.480469 114.484375 101.945312 C 116.347656 102.410156 118.238281 102.613281 120.160156 102.5625 C 130.160156 102.5625 137.339844 97.644531 137.339844 88.78125 C 137.386719 84.039062 133.757812 80.652344 129.402344 78.148438 Z M 169.253906 61.554688 C 164.328125 61.554688 160.464844 63.894531 157.472656 67.441406 L 157.308594 67.355469 L 161.628906 45.046875 L 150.453125 45.046875 L 139.652344 101.839844 L 150.808594 101.839844 L 154.523438 82.429688 C 155.96875 75.097656 159.773438 70.570312 163.3125 70.570312 C 165.820312 70.570312 166.792969 72.261719 166.792969 74.679688 C 166.792969 76.332031 166.628906 77.972656 166.304688 79.59375 L 162.105469 101.828125 L 173.238281 101.828125 L 177.558594 78.871094 C 178.035156 76.476562 178.300781 74.058594 178.355469 71.617188 C 178.367188 65.339844 175.0625 61.554688 169.253906 61.554688 Z M 203.542969 61.554688 C 190.148438 61.554688 181.273438 73.644531 181.273438 87.097656 C 181.273438 95.726562 186.597656 102.636719 196.609375 102.636719 C 209.75 102.636719 218.628906 90.882812 218.628906 77.105469 C 218.628906 69.136719 213.953125 61.554688 203.542969 61.554688 Z M 198.054688 94.109375 C 194.265625 94.109375 192.65625 90.875 192.65625 86.851562 C 192.65625 80.488281 195.960938 70.09375 202.007812 70.09375 C 205.960938 70.09375 207.257812 73.480469 207.257812 76.78125 C 207.257812 83.628906 203.953125 94.109375 198.054688 94.109375 Z M 247.105469 61.554688 C 239.601562 61.554688 235.335938 68.164062 235.335938 68.164062 L 235.171875 68.164062 L 235.820312 62.203125 L 225.972656 62.203125 C 225.484375 66.234375 224.601562 72.347656 223.714844 76.941406 L 215.972656 117.625 L 227.105469 117.625 L 230.171875 101.191406 L 230.410156 101.191406 C 232.441406 102.246094 234.601562 102.726562 236.890625 102.636719 C 249.957031 102.636719 258.488281 89.265625 258.488281 75.734375 C 258.5625 68.230469 255.257812 61.554688 247.105469 61.554688 Z M 236.457031 94.257812 C 234.734375 94.28125 233.203125 93.742188 231.867188 92.652344 L 233.714844 82.246094 C 235.011719 75.324219 238.640625 70.730469 242.515625 70.730469 C 245.894531 70.730469 246.953125 73.871094 246.953125 76.855469 C 246.953125 84.027344 242.636719 94.246094 236.457031 94.246094 Z M 274.460938 45.585938 C 274.042969 45.585938 273.628906 45.625 273.222656 45.703125 C 272.8125 45.785156 272.414062 45.902344 272.027344 46.0625 C 271.644531 46.21875 271.277344 46.414062 270.929688 46.644531 C 270.582031 46.875 270.261719 47.136719 269.964844 47.429688 C 269.667969 47.722656 269.402344 48.042969 269.171875 48.386719 C 268.9375 48.734375 268.742188 49.097656 268.582031 49.480469 C 268.417969 49.867188 268.296875 50.261719 268.214844 50.667969 C 268.132812 51.078125 268.089844 51.488281 268.089844 51.90625 L 268.089844 52.058594 C 268.089844 55.355469 270.183594 57.609375 273.335938 57.609375 L 273.5 57.609375 C 273.910156 57.621094 274.316406 57.597656 274.722656 57.527344 C 275.125 57.460938 275.519531 57.355469 275.90625 57.214844 C 276.289062 57.070312 276.65625 56.890625 277.003906 56.675781 C 277.355469 56.460938 277.679688 56.210938 277.980469 55.933594 C 278.28125 55.652344 278.550781 55.347656 278.789062 55.015625 C 279.03125 54.683594 279.238281 54.332031 279.410156 53.960938 C 279.582031 53.589844 279.714844 53.203125 279.808594 52.804688 C 279.90625 52.40625 279.960938 52.003906 279.980469 51.59375 L 279.980469 51.140625 C 279.996094 50.796875 279.980469 50.453125 279.929688 50.109375 C 279.878906 49.769531 279.796875 49.433594 279.683594 49.109375 C 279.566406 48.78125 279.421875 48.46875 279.246094 48.171875 C 279.070312 47.875 278.863281 47.597656 278.632812 47.339844 C 278.402344 47.082031 278.148438 46.851562 277.875 46.644531 C 277.597656 46.433594 277.300781 46.257812 276.992188 46.105469 C 276.679688 45.957031 276.355469 45.835938 276.019531 45.75 C 275.6875 45.660156 275.347656 45.609375 275 45.585938 Z M 258.886719 101.839844 L 270.023438 101.839844 L 277.613281 62.441406 L 266.394531 62.441406 Z M 305.929688 62.363281 L 298.175781 62.363281 L 298.585938 60.511719 C 299.234375 56.726562 301.492188 53.339844 305.195312 53.339844 C 306.410156 53.339844 307.59375 53.53125 308.75 53.910156 L 310.910156 45.210938 C 308.960938 44.457031 306.945312 44.132812 304.859375 44.238281 C 302.878906 44.183594 300.953125 44.476562 299.078125 45.117188 C 297.203125 45.753906 295.5 46.699219 293.964844 47.949219 C 290.171875 51.183594 288.402344 55.839844 287.484375 60.511719 L 287.160156 62.363281 L 282 62.363281 L 280.398438 70.742188 L 285.5625 70.742188 L 279.675781 101.839844 L 290.8125 101.839844 L 296.695312 70.742188 L 304.363281 70.742188 Z M 332.710938 62.449219 C 332.710938 62.449219 325.757812 79.949219 322.625 89.515625 L 322.515625 89.515625 C 322.300781 86.429688 319.773438 62.449219 319.773438 62.449219 L 308.023438 62.449219 L 314.71875 98.613281 C 314.898438 99.265625 314.820312 99.882812 314.484375 100.46875 C 313.019531 103.179688 311.019531 105.40625 308.476562 107.15625 C 306.519531 108.507812 304.40625 109.550781 302.140625 110.28125 L 305.238281 119.714844 C 309.382812 118.625 313.015625 116.613281 316.136719 113.675781 C 321.222656 108.921875 325.855469 101.589844 330.734375 91.605469 L 344.375 62.492188 Z M 70.796875 36.886719 L 68.0625 37.726562 C 67.730469 36.605469 67.296875 35.527344 66.757812 34.492188 C 64.824219 30.804688 61.984375 28.851562 58.5625 28.851562 L 57.847656 28.851562 C 57.609375 28.851562 57.652344 28.605469 57.546875 28.496094 C 56.816406 27.703125 55.953125 27.105469 54.953125 26.699219 C 53.957031 26.292969 52.917969 26.121094 51.84375 26.179688 C 47.425781 26.308594 43.019531 29.5 39.445312 35.160156 C 36.949219 39.128906 35.296875 43.421875 34.476562 48.035156 L 25.773438 50.730469 C 23.214844 51.539062 23.128906 51.613281 22.792969 54.03125 C 22.535156 55.949219 15.816406 107.726562 15.816406 107.726562 L 71.453125 117.34375 L 71.453125 36.800781 C 71.230469 36.800781 71.011719 36.828125 70.796875 36.886719 Z M 57.933594 40.875 L 48.550781 43.785156 C 49.394531 40.347656 50.976562 37.285156 53.289062 34.601562 C 54.207031 33.597656 55.285156 32.824219 56.53125 32.28125 C 57.605469 35.046875 58.070312 37.914062 57.933594 40.875 Z M 51.90625 29.230469 C 52.867188 29.183594 53.75 29.414062 54.566406 29.921875 C 53.273438 30.613281 52.132812 31.496094 51.140625 32.574219 C 49.644531 34.308594 48.402344 36.210938 47.417969 38.277344 C 46.433594 40.34375 45.738281 42.503906 45.332031 44.757812 L 37.621094 47.140625 C 39.144531 40.121094 45.09375 29.414062 51.917969 29.230469 Z M 43.269531 69.644531 C 43.570312 74.367188 56.023438 75.402344 56.726562 86.464844 C 57.277344 95.175781 52.089844 101.136719 44.640625 101.558594 C 43.382812 101.671875 42.125 101.652344 40.871094 101.503906 C 39.617188 101.351562 38.394531 101.074219 37.195312 100.671875 C 36 100.265625 34.859375 99.738281 33.773438 99.09375 C 32.6875 98.449219 31.679688 97.703125 30.753906 96.847656 L 32.652344 88.792969 C 32.652344 88.792969 37.609375 92.535156 41.585938 92.273438 C 42.042969 92.261719 42.484375 92.160156 42.90625 91.972656 C 43.324219 91.785156 43.695312 91.523438 44.011719 91.191406 C 44.328125 90.859375 44.570312 90.476562 44.738281 90.046875 C 44.90625 89.621094 44.984375 89.175781 44.976562 88.714844 L 44.976562 88.523438 C 44.617188 82.355469 34.476562 82.722656 33.839844 72.542969 C 33.300781 64.015625 38.90625 55.378906 51.28125 54.601562 C 56.042969 54.300781 58.484375 55.519531 58.484375 55.519531 L 55.65625 66.085938 C 53.445312 65.179688 51.152344 64.78125 48.765625 64.886719 C 43.367188 65.277344 43.257812 68.726562 43.3125 69.597656 Z M 60.839844 39.96875 C 60.855469 37.214844 60.410156 34.539062 59.5 31.9375 C 62.859375 32.574219 64.511719 36.359375 65.203125 38.621094 Z M 73.3125 117.117188 L 96.390625 111.359375 C 96.390625 111.359375 86.457031 44.261719 86.390625 43.808594 C 86.359375 43.605469 86.269531 43.4375 86.121094 43.296875 C 85.96875 43.160156 85.792969 43.082031 85.589844 43.0625 L 78.753906 42.933594 C 78.753906 42.933594 74.792969 39.097656 73.355469 37.640625 Z M 73.3125 117.117188 " fill-opacity="1" fill-rule="nonzero"/></g></svg>